<?xml version="1.0" encoding="UTF-8"?>
<svg id="Layer_1" data-name="Layer 1" xmlns="http://www.w3.org/2000/svg" viewBox="0 0 211.0586 46.3408">
  <defs>
    <style>
      .cls-1 {
        fill: #fff;
      }
    </style>
  </defs>
  <path class="cls-1" d="M14.6567.7798c3.0142,0,5.6235.3535,7.8271,1.0601,2.2036.707,4.0229,1.6948,5.4575,2.9629s2.4995,2.7861,3.1963,4.5527c.6963,1.7676,1.0449,3.7007,1.0449,5.8003,0,2.1831-.3643,4.1841-1.0913,6.0034-.728,1.8193-1.8198,3.3833-3.2744,4.6934-1.4556,1.3096-3.2798,2.3286-5.4731,3.0562-2.1938.7275-4.7559,1.0913-7.687,1.0913h-6.2681v15.873H0V.7798h14.6567ZM14.6567,23.4512c1.5381,0,2.8794-.1919,4.0229-.5771,1.1431-.3843,2.0942-.9355,2.853-1.6528s1.3257-1.5903,1.6997-2.6191c.3745-1.0293.5615-2.1777.5615-3.4463,0-1.2056-.187-2.2969-.5615-3.2744-.374-.9766-.9355-1.8086-1.6841-2.4946-.748-.686-1.6943-1.2109-2.8374-1.5747-1.144-.3638-2.4951-.5459-4.0542-.5459h-6.2681v16.1851h6.2681Z"/>
  <path class="cls-1" d="M44.1577,19.4282c.9976-1.9126,2.1826-3.4146,3.5547-4.5063,1.3726-1.0913,2.9941-1.6372,4.8652-1.6372,1.4756,0,2.6606.3228,3.5547.9668l-.4985,5.7695c-.1045.374-.2549.6392-.4521.7949-.1982.1558-.4629.2339-.7954.2339-.312,0-.7749-.0518-1.3877-.1558-.6138-.104-1.2114-.1562-1.793-.1562-.853,0-1.6118.125-2.2769.3745-.6655.2495-1.2627.6079-1.793,1.0757s-.998,1.0347-1.4033,1.6997c-.4053.6655-.7852,1.4243-1.1382,2.2764v19.709h-7.7026V13.8774h4.5215c.79,0,1.3413.1401,1.6528.4209.312.2808.5195.7852.624,1.5127l.4678,3.6172Z"/>
  <path class="cls-1" d="M62.4009,45.873v-26.1953l-2.7754-.4365c-.603-.125-1.0864-.3379-1.4502-.6392s-.5454-.7329-.5454-1.2944v-3.1494h4.771v-2.3701c0-1.8291.2754-3.4717.8267-4.9272.5503-1.4551,1.3408-2.6924,2.3696-3.7109,1.0293-1.0186,2.2817-1.7983,3.7578-2.3389s3.1392-.811,4.9897-.811c1.4761,0,2.8481.1978,4.1167.5928l-.1562,3.8667c-.0215.2915-.1035.5254-.25.7017-.1445.1768-.3374.312-.5762.4053-.2393.0938-.5146.1562-.8267.1875-.3115.0308-.6445.0464-.998.0464-.915,0-1.7305.0991-2.4478.2964-.7173.1978-1.3252.541-1.8242,1.0293-.499.4888-.8789,1.1333-1.1382,1.9331-.2603.8008-.3901,1.7935-.3901,2.9785v2.1206h8.3262v5.4883h-8.0767v26.2266h-7.7026Z"/>
  <path class="cls-1" d="M87.5981,30.8418c.125,1.6426.416,3.0615.873,4.2568s1.0605,2.1826,1.8086,2.9619c.749.7803,1.6377,1.3623,2.667,1.7471s2.167.5762,3.4141.5762c1.248,0,2.3232-.1445,3.2285-.4365.9043-.29,1.6934-.6123,2.3691-.9668.6758-.3525,1.2686-.6748,1.7783-.9658.5088-.291,1.0024-.4375,1.481-.4375.6436,0,1.1221.2393,1.4336.7178l2.2148,2.8066c-.8525.998-1.8086,1.835-2.8691,2.5107s-2.1675,1.2158-3.3208,1.6211c-1.1543.4053-2.3291.6914-3.5244.8574s-2.3535.25-3.4766.25c-2.2246,0-4.293-.3691-6.2061-1.1074-1.9131-.7373-3.5762-1.8291-4.9893-3.2744-1.4141-1.4443-2.5264-3.2324-3.3369-5.3633s-1.2158-4.6001-1.2158-7.4067c0-2.1826.3525-4.2358,1.0596-6.1587s1.7207-3.5967,3.041-5.021c1.3203-1.4238,2.9316-2.5518,4.833-3.3833,1.9023-.8315,4.0488-1.2476,6.4404-1.2476,2.0156,0,3.877.3228,5.582.9668,1.7041.6445,3.1699,1.5854,4.396,2.8223,1.2266,1.2368,2.1885,2.7549,2.8848,4.5527.6963,1.7988,1.0449,3.8516,1.0449,6.1592,0,1.1646-.125,1.9492-.374,2.3545-.25.4053-.7285.6079-1.4346.6079h-19.8022ZM102.2866,26.1953c0-.998-.1406-1.9385-.4209-2.8223-.2812-.8833-.7021-1.6577-1.2637-2.3232-.5605-.665-1.2734-1.1899-2.1357-1.5747-.8633-.3843-1.8662-.5771-3.0098-.5771-2.2246,0-3.9756.6348-5.2539,1.9023-1.2793,1.2686-2.0947,3.0669-2.4482,5.395h14.5322Z"/>
  <path class="cls-1" d="M137.8994,20.6445c-.2295.2915-.4521.52-.6709.686-.2178.1665-.5352.2495-.9512.2495-.3945,0-.7793-.1196-1.1533-.3589-.374-.2388-.8213-.5088-1.3408-.8105-.5205-.3013-1.1387-.5718-1.8555-.811-.7178-.2388-1.6064-.3584-2.667-.3584-1.3516,0-2.5361.2446-3.5547.7329-1.0186.4888-1.8662,1.1904-2.542,2.105-.6758.915-1.1797,2.022-1.5117,3.3213-.333,1.2993-.499,2.7705-.499,4.4126,0,1.7046.1816,3.2227.5449,4.5522.3643,1.3311.8896,2.4482,1.5752,3.3525.6865.9043,1.5176,1.5908,2.4951,2.0586.9766.4678,2.0781.7012,3.3057.7012,1.2266,0,2.2188-.1504,2.9775-.4521.7588-.3008,1.3984-.6338,1.918-.998.5195-.3633.9717-.6963,1.3564-.9971.3848-.3018.8164-.4531,1.2949-.4531.623,0,1.0908.2393,1.4033.7178l2.2139,2.8066c-.8525.998-1.7773,1.835-2.7754,2.5107s-2.0322,1.2158-3.1035,1.6211c-1.0703.4053-2.1719.6914-3.3057.8574-1.1328.166-2.2607.25-3.3828.25-1.9756,0-3.8359-.3691-5.582-1.1074-1.7471-.7373-3.2744-1.8135-4.585-3.2275-1.3096-1.4131-2.3438-3.1445-3.1025-5.1924s-1.1377-4.3813-1.1377-7.0005c0-2.3491.3369-4.5269,1.0127-6.5332s1.6689-3.7422,2.9785-5.208,2.9316-2.6143,4.8652-3.4458c1.9326-.8315,4.1572-1.2476,6.6729-1.2476,2.3906,0,4.4854.3848,6.2842,1.1538,1.7979.7695,3.415,1.8711,4.8496,3.3057l-2.0273,2.8066Z"/>
  <path class="cls-1" d="M197.9609,45.873h-6.4863c-.7285,0-1.3213-.1816-1.7783-.5459-.457-.3633-.7998-.8154-1.0283-1.3564l-3.3682-9.2002h-18.6797l-3.3682,9.2002c-.167.4785-.4893.915-.9668,1.3096-.4785.3955-1.0713.5928-1.7773.5928h-6.5488L171.7031.7798h8.5449l17.7129,45.0933ZM183.1475,28.8462l-5.4883-15c-.2705-.665-.5508-1.4551-.8418-2.3701-.292-.9146-.582-1.9023-.873-2.9624-.2705,1.0601-.5518,2.0532-.8418,2.978-.292.9253-.5723,1.731-.8428,2.417l-5.457,14.9375h14.3447Z"/>
  <path class="cls-1" d="M211.0586,45.873h-8.4199V.7798h8.4199v45.0933Z"/>
</svg>