<?xml version="1.0" encoding="UTF-8"?>
<svg id="Layer_1" data-name="Layer 1" xmlns="http://www.w3.org/2000/svg" viewBox="0 0 503.9315 164.1138">
  <defs>
    <style>
      .cls-1 {
        fill: #231f20;
      }
    </style>
  </defs>
  <path class="cls-1" d="M34.0744,0v133.0526h63.5131l-3.7088,27.3525H0V0h34.0744Z"/>
  <path class="cls-1" d="M232.0308,107.555c0,10.9743-2.3181,20.7099-6.9538,29.2063-4.6362,8.5006-11.5539,15.1828-20.746,20.0509-9.1962,4.8676-20.3621,7.3016-33.4953,7.3016-19.7824,0-34.8854-5.136-45.3166-15.4147-10.4307-10.2751-15.6465-23.991-15.6465-41.1441V0h34.0744v105.9325c0,10.8182,2.1625,18.8916,6.4906,24.2229,4.3245,5.3313,11.1263,7.9972,20.3982,7.9972s16.1103-2.6659,20.5141-7.9972c4.4043-5.3313,6.6065-13.4047,6.6065-24.2229V0h34.0744v107.555Z"/>
  <path class="cls-1" d="M361.1438,0v26.1937l-71.8586,106.6271h73.0169l-3.7077,27.5843h-109.1786v-25.7294l73.2493-107.7869h-65.8312V0h104.31Z"/>
  <path class="cls-1" d="M503.9315,107.555c0,10.9743-2.3176,20.7099-6.9538,29.2063-4.6362,8.5006-11.5539,15.1828-20.746,20.0509-9.1962,4.8676-20.3626,7.3016-33.4953,7.3016-19.7824,0-34.8854-5.136-45.3161-15.4147-10.4317-10.2751-15.6471-23.991-15.6471-41.1441V0h34.0744v105.9325c0,10.8182,2.162,18.8916,6.4911,24.2229,4.324,5.3313,11.1263,7.9972,20.3977,7.9972s16.1098-2.6659,20.5141-7.9972,6.6065-13.4047,6.6065-24.2229V0h34.0744v107.555Z"/>
</svg>